<svg xmlns="http://www.w3.org/2000/svg" viewBox="0 0 96 96">
  <!-- Sun (partially behind cloud) -->
  <circle cx="34" cy="34" r="15" fill="#FFD43B"/>
  <g stroke="#FF8C00" stroke-width="3.5" stroke-linecap="round">
    <line x1="34" y1="12" x2="34" y2="20"/>
    <line x1="34" y1="48" x2="34" y2="56"/>
    <line x1="12" y1="34" x2="20" y2="34"/>
    <line x1="48" y1="34" x2="56" y2="34"/>
    <line x1="17.9" y1="17.9" x2="23.2" y2="23.2"/>
    <line x1="44.8" y1="44.8" x2="50.1" y2="50.1"/>
    <line x1="50.1" y1="17.9" x2="44.8" y2="23.2"/>
    <line x1="23.2" y1="44.8" x2="17.9" y2="50.1"/>
  </g>
  <!-- Cloud -->
  <path d="M78 68c0-6.1-4.9-11-11-11-1.1 0-2.1.2-3.1.4C62 52.2 57.2 48 51.5 48c-6.4 0-11.5 5.2-11.5 11.5 0 .4 0 .8.1 1.1C36.4 61.7 33 65.5 33 70c0 5 4 9 9 9h32c3.9 0 7-3.1 7-7 0-2.8-1.7-5.3-4-6.5L78 68z" fill="#E8EDF2"/>
</svg>
